PathFileType	4	(X/Y/Z)	Walk1.trc
DataRate	CameraRate	NumFrames	NumMarkers	Units	OrigDataRate	OrigDataStartFrame	OrigNumFrames
200.000000	200.000000	4	61	mm	200.000000	397	638
Frame#	Times		RCAR		LToe		LLFC		LASI		LFA1		RACR1		LUA1		RWRR		LCAR		LElbow		RLFC		LWRR		RTB2		RToe		RFA1		LACR1		RMT1		RTH3		RTH2		RTB3		LTH3		RFHD		RMT5		LTH4		RTB1		STRN		LFHD		LTB1		RTB4		LTB4		LWRU		RCAL		RWRU		LPSI		LTH2		C7		LMT1		RPSI		RMMAL		RLMAL		RASI		RMFC		LTB3		CLAV		LTB2		RElbow		LBHD		RBHD		LMFC		RUA1		RBack		RElbowM		LMMAL		RTH4		LElbowM		LMT5		LCAL		T10		LTH1		LLMAL		RTH1
			X1	Y1	Z1	X2	Y2	Z2	X3	Y3	Z3	X4	Y4	Z4	X5	Y5	Z5	X6	Y6	Z6	X7	Y7	Z7	X8	Y8	Z8	X9	Y9	Z9	X10	Y10	Z10	X11	Y11	Z11	X12	Y12	Z12	X13	Y13	Z13	X14	Y14	Z14	X15	Y15	Z15	X16	Y16	Z16	X17	Y17	Z17	X18	Y18	Z18	X19	Y19	Z19	X20	Y20	Z20	X21	Y21	Z21	X22	Y22	Z22	X23	Y23	Z23	X24	Y24	Z24	X25	Y25	Z25	X26	Y26	Z26	X27	Y27	Z27	X28	Y28	Z28	X29	Y29	Z29	X30	Y30	Z30	X31	Y31	Z31	X32	Y32	Z32	X33	Y33	Z33	X34	Y34	Z34	X35	Y35	Z35	X36	Y36	Z36	X37	Y37	Z37	X38	Y38	Z38	X39	Y39	Z39	X40	Y40	Z40	X41	Y41	Z41	X42	Y42	Z42	X43	Y43	Z43	X44	Y44	Z44	X45	Y45	Z45	X46	Y46	Z46	X47	Y47	Z47	X48	Y48	Z48	X49	Y49	Z49	X50	Y50	Z50	X51	Y51	Z51	X52	Y52	Z52	X53	Y53	Z53	X54	Y54	Z54	X55	Y55	Z55	X56	Y56	Z56	X57	Y57	Z57	X58	Y58	Z58	X59	Y59	Z59	X60	Y60	Z60	X61	Y61	Z61

397	1.985	34.3	810.34	398.47	-147.49	29.806	-22.642	-110.06	495.59	-122.9	115.54	1012.3	-131.95	132.13	1041.2	-277.44	43.764	1471.9	237.8	50.003	1328.9	-219.65	53.851	855.23	342.21	200.82	889.01	-291.86	30.486	1158.5	-270.23	200.12	506.27	209.85	197.53	925.89	-234.88	298.91	289.95	178.75	492.47	70.278	119.29	14.945	997.95	364.97	43.97	1512.5	-136.37	443.88	68.832	104.14	140.34	628.38	217.33	155.98	729.42	238.88	306.35	206.35	113.5	-38.323	628	-148.56	189.29	1679.7	126.48	405.66	43.752	188.87	-17.502	710.97	-165.89	280.24	377.2	122.54	184.68	1281.1	37.76	191.33	1689.8	21.702	-146.34	347.72	-17.864	293.08	291.04	117.6	-195.27	278.36	-12.206	123.57	909.19	-290.28	227.29	36.04	116.37	-21.066	854.52	388.44	-100.6	1053	-20.312	35.855	702.78	-146.55	-58.043	1532.5	57.075	-202.4	45.05	-7.1074	-97.661	1040.7	87.188	306.47	107.22	67.052	281.26	73.745	158.41	125.15	1023.2	188.93	186.52	493.43	61.026	-242.47	206.66	-7.8864	112.49	1450.3	37.332	-179.77	262.87	-71.096	-51.817	1135.7	339.14	25.547	1676.6	-2.6045	18.393	1666.7	139.57	-99.959	494.48	16.052	7.4144	1291.8	304.52	-117.61	1406.9	163.96	-69.174	1111.4	247.21	-310.45	131.94	33.103	102.52	703.31	225.69	0.78723	1125.4	-186.42	-248.94	34.169	-94.996	-411.33	116.74	-26.354	-84.662	1174.5	30.419	2.4383	793.95	-182.04	-340.63	115.71	-65.472	65.405	783.31	236.12
398	1.99	40.883	810.82	399.34	-147.74	29.793	-22.555	-102.24	495.51	-122.59	122.17	1012.9	-131.18	136.28	1041.5	-276.37	49.425	1472.5	239.02	55.428	1330	-218.42	60.463	855.69	343.07	203.71	888.79	-291.24	35.511	1159.6	-268.81	204.88	507	210.75	200.75	925.56	-234.15	301.54	289.73	179.51	493.17	68.183	119.98	21.412	998.41	365.82	49.67	1513.6	-135.12	444.56	67.299	104.81	145.82	629.57	218.43	161.62	730.64	239.54	308.21	206.12	114.16	-30.786	627.71	-148.15	195.13	1680.4	127.75	405.92	42.344	189.52	-10.325	710.82	-165.16	283.61	377.18	123.38	190.62	1282.2	38.888	197.07	1690.6	22.984	-140.36	348.07	-17.813	295.68	290.91	118.34	-190.33	279.47	-12.16	126.63	909.65	-289.58	227.61	36.503	116.66	-14.511	854.93	389.21	-94.534	1053.5	-20.178	43.009	702.82	-145.73	-52.323	1533.2	58.373	-202.26	44.999	-6.9769	-91.835	1041.8	87.609	307.45	107.15	67.639	281.9	73.594	158.91	131.07	1024.5	189.74	190.98	494.31	62.062	-238.57	208.42	-7.9031	118.23	1451.2	38.57	-175.21	263.82	-71.031	-45.47	1136	339.96	31.263	1677.5	-1.1841	24.243	1667.5	140.99	-91.905	494.07	16.004	13.434	1292.3	305.51	-111.83	1407.4	165.09	-62.643	1111.8	248.01	-307.54	134.79	33.235	108.08	704.52	226.75	5.7904	1126.7	-184.92	-248.48	35.09	-94.555	-408.65	121.81	-26.08	-78.898	1175.3	30.797	9.2502	793.93	-181.14	-338.23	119.17	-65.292	71.009	784.51	237.14
399	1.995	47.532	811.39	400.21	-148.03	29.764	-22.472	-94.159	495.44	-122.32	128.71	1013.5	-130.35	140.39	1042	-275.31	55.101	1473.2	240.22	60.849	1331.2	-217.2	67.126	856.27	343.93	206.56	888.66	-290.61	40.505	1160.8	-267.42	209.47	507.67	211.69	203.9	925.32	-233.42	304.04	289.51	180.28	493.79	66.264	120.67	27.915	998.97	366.67	55.399	1514.8	-133.86	445.16	65.907	105.47	151.2	630.74	219.56	167.2	731.84	240.24	309.96	205.9	114.82	-23.063	627.42	-147.78	200.95	1681.2	129.02	406.13	41.067	190.18	-3.0134	710.69	-164.47	286.85	377.16	124.24	196.54	1283.2	40.008	202.81	1691.3	24.261	-134.07	348.43	-17.811	298.17	290.79	119.1	-185.11	280.63	-12.136	129.66	910.23	-288.89	227.9	36.932	116.95	-7.8974	855.44	389.97	-88.487	1054	-20.068	50.299	702.9	-144.93	-46.602	1534	59.662	-202.1	44.975	-6.835	-86.012	1043	88.019	308.36	107.11	68.227	282.48	73.452	159.4	136.96	1025.9	190.55	195.33	495.16	63.139	-234.4	210.26	-7.9316	123.98	1452.2	39.8	-170.42	264.85	-71.013	-39.113	1136.5	340.77	36.98	1678.4	0.22281	30.085	1668.3	142.4	-83.514	493.61	15.914	19.472	1292.9	306.49	-106.03	1408.1	166.23	-56.088	1112.3	248.8	-304.36	137.78	33.402	113.58	705.73	227.85	10.762	1128.1	-183.44	-248	36.104	-94.094	-405.68	127.12	-25.696	-73.155	1176.1	31.195	16.148	793.93	-180.24	-335.61	122.81	-65.049	76.566	785.73	238.17
400	2	54.249	812.06	401.07	-148.35	29.711	-22.39	-85.825	495.36	-122.08	135.12	1014.2	-129.44	144.47	1042.6	-274.27	60.797	1474	241.41	66.27	1332.4	-216	73.84	856.95	344.79	209.36	888.61	-289.97	45.462	1162	-266.05	213.87	508.28	212.64	207.02	925.18	-232.69	306.44	289.28	181.04	494.34	64.505	121.31	34.451	999.64	367.52	61.154	1516	-132.6	445.69	64.64	106.09	156.43	631.89	220.71	172.69	732.99	240.97	311.63	205.69	115.47	-15.162	627.13	-147.46	206.76	1681.9	130.28	406.31	39.92	190.85	4.4248	710.59	-163.81	289.98	377.13	125.1	202.43	1284.3	41.115	208.54	1692.2	25.531	-127.47	348.81	-17.859	300.55	290.67	119.85	-179.59	281.85	-12.132	132.65	910.92	-288.22	228.18	37.324	117.22	-1.2235	856.05	390.74	-82.461	1054.7	-19.964	57.719	703.01	-144.17	-40.882	1534.8	60.942	-201.88	44.988	-6.6797	-80.191	1044.2	88.426	309.2	107.09	68.796	283.02	73.32	159.87	142.81	1027.2	191.36	199.53	495.94	64.243	-229.94	212.19	-7.9644	129.72	1453.3	41.019	-165.38	265.96	-71.043	-32.752	1137.1	341.6	42.693	1679.4	1.6126	35.914	1669.2	143.79	-74.776	493.09	15.787	25.53	1293.5	307.48	-100.22	1408.7	167.36	-49.518	1112.9	249.6	-300.87	140.89	33.609	118.98	706.92	228.96	15.697	1129.6	-181.98	-247.5	37.218	-93.61	-402.38	132.68	-25.191	-67.428	1177	31.622	23.126	793.95	-179.35	-332.77	126.63	-64.736	82.064	786.97	239.2
